<svg enable-background="new 0 0 31.955 31.955" version="1.1" viewBox="0 0 31.955 31.955" xml:space="preserve" xmlns="http://www.w3.org/2000/svg"><g fill="#FFF"><path d="m27.25 4.655c-6.254-6.226-16.37-6.201-22.594 0.051-6.227 6.254-6.204 16.37 0.049 22.594 6.256 6.226 16.374 6.203 22.597-0.051 6.224-6.254 6.203-16.371-0.052-22.594z"/><path d="m13.288 23.896-1.768 5.207c2.567 0.829 5.331 0.886 7.926 0.17l-0.665-5.416c-1.771 0.63-3.714 0.643-5.493 0.039zm-5.168-10.774-5.645-0.859c-0.741 2.666-0.666 5.514 0.225 8.143l5.491-1.375c-0.739-1.893-0.765-4.002-0.071-5.909zm20.643-1.789-4.965 1.675c0.798 2.106 0.716 4.468-0.247 6.522l5.351 0.672c0.925-2.883 0.878-6.009-0.139-8.869zm-17.369-8.45 1.018 5.528c2.027-0.954 4.356-1.05 6.442-0.288l1.583-5.137c-2.914-1.046-6.109-1.08-9.043-0.103z"/><circle cx="15.979" cy="15.977" r="6.117"/></g></svg>
